<svg width="24" height="24" viewBox="0 0 24 24" fill="none" xmlns="http://www.w3.org/2000/svg">
<path fill-rule="evenodd" clip-rule="evenodd" d="M3.22298 3.0293C3.65496 2.59731 4.24086 2.35463 4.85178 2.35463H18.6726C19.2835 2.35463 19.8694 2.59731 20.3014 3.0293C20.7334 3.46128 20.9761 4.04718 20.9761 4.65809V18.4789C20.9761 19.0898 20.7334 19.6757 20.3014 20.1077C19.8694 20.5397 19.2835 20.7824 18.6726 20.7824H4.85178C4.24086 20.7824 3.65496 20.5397 3.22298 20.1077C2.791 19.6757 2.54831 19.0898 2.54831 18.4789V4.65809C2.54831 4.04718 2.791 3.46128 3.22298 3.0293ZM18.6726 0.0511589H4.85178C3.62994 0.0511589 2.45815 0.536531 1.59418 1.4005C0.730215 2.26447 0.244843 3.43626 0.244843 4.65809V18.4789C0.244843 19.7007 0.730215 20.8725 1.59418 21.7365C2.45815 22.6005 3.62994 23.0858 4.85178 23.0858H18.6726C19.8944 23.0858 21.0662 22.6005 21.9302 21.7365C22.7941 20.8725 23.2795 19.7007 23.2795 18.4789V4.65809C23.2795 3.43626 22.7941 2.26447 21.9302 1.4005C21.0662 0.536531 19.8944 0.0511589 18.6726 0.0511589ZM17.5208 17.1278V12.8698C17.5208 10.5894 16.3023 9.52747 14.6784 9.52747C13.3665 9.52747 12.7815 10.2485 12.4532 10.7552V10.7783H12.4371L12.4532 10.7541V9.70254H9.98389C10.0173 10.3993 9.98389 17.1278 9.98389 17.1278H12.4532V12.9804C12.4532 12.7592 12.4705 12.5381 12.535 12.3792C12.7135 11.9346 13.1201 11.4762 13.8019 11.4762C14.6956 11.4762 15.0527 12.1569 15.0527 13.1543V17.1278H17.5208ZM6.0035 7.40483C6.0035 6.67693 6.55633 6.1218 7.40055 6.1218C8.24592 6.1218 8.76535 6.67693 8.78148 7.40483C8.78148 8.11775 8.24592 8.68901 7.38443 8.68901H7.3683C6.54021 8.68901 6.0035 8.1189 6.0035 7.40483ZM8.61908 17.1278H6.14977V9.70254H8.61908V17.1278Z" fill="#DA5C5C"/>
</svg>
